<?xml version="1.0" encoding="UTF-8"?>
<svg version="1.1" viewBox="0 0 64 64" xmlns="http://www.w3.org/2000/svg"><g fill="#fff"><path d="m29.13 52.52a1.13 1.13 0 01-.32-.05l-7.25-2.47-7.24 2.48a1 1 0 01-.91-.14 1 1 0 01-.41-.84l.12-7.65-4.59-6.12a1 1 0 01.47-1.56l7.31-2.25.69-.92a1 1 0 011.64 1.16l-.83 1.17a1 1 0 01-.53.39l-6.28 1.95 3.95 5.25a1 1 0 01.2.62l-.15 6.57 6.24-2.11a1 1 0 01.64 0l6.23 2.13v-1.09a1 1 0 011-1 1 1 0 011 1v2.52a1 1 0 01-.41.83 1.06 1.06 0 01-.57.13zm-.13-6.52a1 1 0 01-1-1v-1.48a1 1 0 01.2-.61l3.95-5.25-6.28-1.93a1 1 0 01-.53-.39l-3.78-5.34-.64.92a1 1 0 01-1.64-1.14l1.46-2.09a1 1 0 01.82-.43 1 1 0 01.82.43l4.4 6.25 7.31 2.25a1 1 0 01.66.65 1 1 0 01-.15.91l-4.6 6.1v1.15a1 1 0 01-1 1z"/><path d="m55 45a1 1 0 01-1-1 1 1 0 00-1-1 1 1 0 010-2 1 1 0 001-1 1 1 0 012 0 1 1 0 001 1 1 1 0 010 2 1 1 0 00-1 1 1 1 0 01-1 1z"/><path d="m10 22a1 1 0 01-1-1 1 1 0 00-1-1 1 1 0 010-2 1 1 0 001-1 1 1 0 012 0 1 1 0 001 1 1 1 0 010 2 1 1 0 00-1 1 1 1 0 01-1 1z"/><path d="m27 27a1 1 0 01-.69-.27 1 1 0 010-1.42l17-18a1 1 0 111.46 1.38l-17 18a1 1 0 01-.77.31zm12 2a1 1 0 01-.71-.29 1 1 0 010-1.42l9-9a1 1 0 011.42 1.42l-9 9a1 1 0 01-.71.29zm-3 3a1 1 0 01-.71-.29 1 1 0 010-1.42l1-1a1 1 0 011.42 1.42l-1 1a1 1 0 01-.71.29zm17-5a1 1 0 01-.71-.29 1 1 0 010-1.42l3.5-3.5a1 1 0 011.42 1.42l-3.5 3.5a1 1 0 01-.71.29zm-18 18a1 1 0 01-.71-.29 1 1 0 010-1.42l13-13a1 1 0 011.42 1.42l-13 13a1 1 0 01-.71.29zm-18-19a1 1 0 01-.71-.29 1 1 0 010-1.42l11-11a1 1 0 011.42 1.42l-11 11a1 1 0 01-.71.29zm-4 4a1 1 0 01-.71-.29 1 1 0 010-1.42l1-1a1 1 0 011.42 1.42l-1 1a1 1 0 01-.71.29z"/><circle cx="46" cy="45" r="1"/><circle cx="41" cy="17" r="1"/><circle cx="48" cy="11" r="1"/><circle cx="19" cy="17" r="1"/><circle cx="54" cy="18" r="1"/><circle cx="9" cy="44" r="1"/><circle cx="58" cy="31" r="1"/><circle cx="23" cy="56" r="1"/><circle cx="22" cy="8" r="1"/><circle cx="8" cy="30" r="1"/><path d="m41 53a1 1 0 01-1-1v-1a1 1 0 012 0v1a1 1 0 01-1 1zm3 2h-1a1 1 0 010-2h1a1 1 0 010 2zm-5 0h-1a1 1 0 010-2h1a1 1 0 010 2zm2 3a1 1 0 01-1-1v-1a1 1 0 012 0v1a1 1 0 01-1 1z"/><path d="m32 7a1 1 0 01-1-1v-1a1 1 0 012 0v1a1 1 0 01-1 1zm3 2h-1a1 1 0 010-2h1a1 1 0 010 2zm-5 0h-1a1 1 0 010-2h1a1 1 0 010 2zm2 3a1 1 0 01-1-1v-1a1 1 0 012 0v1a1 1 0 01-1 1z"/></g></svg>
